<svg width="24" height="24" viewBox="0 0 24 24" xmlns="http://www.w3.org/2000/svg">
  <!-- Фон таблицы -->
  <rect x="2" y="4" width="20" height="16" rx="2" fill="#f0f0f0" stroke="#ccc" stroke-width="1"/>
  <!-- Заголовки колонок -->
  <rect x="3" y="5" width="5" height="3" fill="#e0e0e0" rx="1"/>
  <rect x="9" y="5" width="5" height="3" fill="#e0e0e0" rx="1"/>
  <rect x="15" y="5" width="5" height="3" fill="#e0e0e0" rx="1"/>
  <!-- Строки документов (листы бумаги) -->
  <path d="M3 9 L8 9 L8 11 L3 11 Z" fill="#fff" stroke="#ddd" stroke-width="0.5"/>
  <path d="M3 12 L8 12 L8 14 L3 14 Z" fill="#fff" stroke="#ddd" stroke-width="0.5"/>
  <path d="M3 15 L8 15 L8 17 L3 17 Z" fill="#fff" stroke="#ddd" stroke-width="0.5"/>
  <path d="M10 9 L15 9 L15 11 L10 11 Z" fill="#fff" stroke="#ddd" stroke-width="0.5"/>
  <path d="M10 12 L15 12 L15 14 L10 14 Z" fill="#fff" stroke="#ddd" stroke-width="0.5"/>
  <!-- Групповой индикатор: плюс для свернутой группы -->
  <rect x="18" y="10" width="4" height="4" rx="1" fill="#007acc" stroke="#fff" stroke-width="1"/>
  <rect x="19" y="11" width="2" height="2" fill="#fff"/>
  <rect x="17" y="12" width="6" height="2" fill="#fff"/>
  <!-- Текст "Группа 1" -->
  <text x="4" y="10.5" font-family="Arial, sans-serif" font-size="3.5" font-weight="bold" fill="#333">Группа 1</text>
</svg>